<svg xmlns="http://www.w3.org/2000/svg" width="1024" height="1024" viewBox="0 0 1024 1024">
<rect x="0" y="0" width="1024" height="1024" fill="#0A1420"/>
<line x1="57.9" y1="86.9" x2="36.8" y2="28.1" stroke="#16B8A6" stroke-opacity="0.11" stroke-width="1"/>
<line x1="57.9" y1="86.9" x2="241.8" y2="24.4" stroke="#16B8A6" stroke-opacity="0.02" stroke-width="1"/>
<line x1="855.6" y1="753.6" x2="972.2" y2="557.2" stroke="#16B8A6" stroke-opacity="0.00" stroke-width="1"/>
<line x1="685.8" y1="315.5" x2="595.2" y2="162.2" stroke="#16B8A6" stroke-opacity="0.03" stroke-width="1"/>
<line x1="685.8" y1="315.5" x2="476.1" y2="326.1" stroke="#E0A930" stroke-opacity="0.01" stroke-width="1"/>
<line x1="620.5" y1="621.4" x2="538.4" y2="574.0" stroke="#16B8A6" stroke-opacity="0.09" stroke-width="1"/>
<line x1="595.2" y1="162.2" x2="455.5" y2="274.7" stroke="#16B8A6" stroke-opacity="0.03" stroke-width="1"/>
<line x1="595.2" y1="162.2" x2="476.1" y2="326.1" stroke="#E0A930" stroke-opacity="0.02" stroke-width="1"/>
<line x1="441.0" y1="403.0" x2="455.5" y2="274.7" stroke="#16B8A6" stroke-opacity="0.07" stroke-width="1"/>
<line x1="441.0" y1="403.0" x2="476.1" y2="326.1" stroke="#E0A930" stroke-opacity="0.10" stroke-width="1"/>
<line x1="441.0" y1="403.0" x2="538.4" y2="574.0" stroke="#16B8A6" stroke-opacity="0.02" stroke-width="1"/>
<line x1="455.5" y1="274.7" x2="476.1" y2="326.1" stroke="#E0A930" stroke-opacity="0.11" stroke-width="1"/>
<line x1="455.5" y1="274.7" x2="332.9" y2="140.0" stroke="#16B8A6" stroke-opacity="0.03" stroke-width="1"/>
<line x1="36.8" y1="28.1" x2="241.8" y2="24.4" stroke="#16B8A6" stroke-opacity="0.02" stroke-width="1"/>
<line x1="241.8" y1="24.4" x2="332.9" y2="140.0" stroke="#16B8A6" stroke-opacity="0.05" stroke-width="1"/>
<circle cx="979.0" cy="970.6" r="2.6" fill="#2DD4C4" fill-opacity="0.55"/>
<circle cx="57.9" cy="86.9" r="2.6" fill="#2DD4C4" fill-opacity="0.55"/>
<circle cx="855.6" cy="753.6" r="2.6" fill="#2DD4C4" fill-opacity="0.55"/>
<circle cx="685.8" cy="315.5" r="2.6" fill="#2DD4C4" fill-opacity="0.55"/>
<circle cx="620.5" cy="621.4" r="2.6" fill="#2DD4C4" fill-opacity="0.55"/>
<circle cx="595.2" cy="162.2" r="2.6" fill="#2DD4C4" fill-opacity="0.55"/>
<circle cx="441.0" cy="403.0" r="2.6" fill="#2DD4C4" fill-opacity="0.55"/>
<circle cx="740.4" cy="1018.7" r="2.6" fill="#2DD4C4" fill-opacity="0.55"/>
<circle cx="972.2" cy="557.2" r="2.6" fill="#2DD4C4" fill-opacity="0.55"/>
<circle cx="455.5" cy="274.7" r="2.6" fill="#2DD4C4" fill-opacity="0.55"/>
<circle cx="36.8" cy="28.1" r="2.6" fill="#2DD4C4" fill-opacity="0.55"/>
<circle cx="476.1" cy="326.1" r="4.5" fill="#E0A930" fill-opacity="0.85"/>
<circle cx="389.1" cy="913.2" r="2.6" fill="#2DD4C4" fill-opacity="0.55"/>
<circle cx="538.4" cy="574.0" r="2.6" fill="#2DD4C4" fill-opacity="0.55"/>
<circle cx="241.8" cy="24.4" r="2.6" fill="#2DD4C4" fill-opacity="0.55"/>
<circle cx="332.9" cy="140.0" r="2.6" fill="#2DD4C4" fill-opacity="0.55"/>
<circle cx="512.0" cy="512.0" r="337.92" fill="none" stroke="#FF3399" stroke-width="3" stroke-dasharray="12,10"/>
<text x="512.0" y="154.07999999999998" font-family="monospace" font-size="18" fill="#FF3399" text-anchor="middle">Android adaptive-icon safe zone (66%)</text>
<rect x="0" y="0" width="1024" height="1024" rx="180" fill="none" stroke="#FF3399" stroke-width="2" stroke-dasharray="8,8" opacity="0.5"/>
<text x="512.0" y="522.0" font-family="monospace" font-size="20" fill="#FF3399" text-anchor="middle">MARK ONLY</text>
<text x="512.0" y="548.0" font-family="monospace" font-size="14" fill="#FF3399" text-anchor="middle">no wordmark at this size</text>
<text x="1008" y="1008" font-family="monospace" font-size="12" fill="#8B96A8" text-anchor="end">APP ICON TEMPLATE · 1024×1024</text>
</svg>