<svg xmlns="http://www.w3.org/2000/svg" width="900" height="260" viewBox="0 0 900 260">
<rect width="900" height="260" fill="#0A1420"/>
<rect x="30" y="60" width="16" height="16" fill="#0F1D2E" stroke="#16B8A6" stroke-width="1.5"/>
<circle cx="38.0" cy="68.0" r="3" fill="#2DD4C4"/>
<text x="38.0" y="98" font-family="monospace" font-size="13" fill="#8B96A8" text-anchor="middle">16×16</text>
<rect x="86" y="60" width="32" height="32" fill="#0F1D2E" stroke="#16B8A6" stroke-width="1.5"/>
<circle cx="102.0" cy="76.0" r="3.84" fill="#2DD4C4"/>
<text x="102.0" y="114" font-family="monospace" font-size="13" fill="#8B96A8" text-anchor="middle">32×32</text>
<rect x="158" y="60" width="48" height="48" fill="#0F1D2E" stroke="#16B8A6" stroke-width="1.5"/>
<circle cx="182.0" cy="84.0" r="5.76" fill="#2DD4C4"/>
<text x="182.0" y="130" font-family="monospace" font-size="13" fill="#8B96A8" text-anchor="middle">48×48</text>
<rect x="246" y="60" width="140" height="140" fill="#0F1D2E" stroke="#16B8A6" stroke-width="1.5"/>
<circle cx="316.0" cy="130.0" r="16.8" fill="#2DD4C4"/>
<text x="316.0" y="222" font-family="monospace" font-size="13" fill="#8B96A8" text-anchor="middle">180×180</text>
<rect x="426" y="60" width="140" height="140" fill="#0F1D2E" stroke="#16B8A6" stroke-width="1.5"/>
<circle cx="496.0" cy="130.0" r="16.8" fill="#2DD4C4"/>
<text x="496.0" y="222" font-family="monospace" font-size="13" fill="#8B96A8" text-anchor="middle">192×192</text>
<rect x="606" y="60" width="140" height="140" fill="#0F1D2E" stroke="#16B8A6" stroke-width="1.5"/>
<circle cx="676.0" cy="130.0" r="16.8" fill="#2DD4C4"/>
<text x="676.0" y="222" font-family="monospace" font-size="13" fill="#8B96A8" text-anchor="middle">512×512</text>
<text x="30" y="30" font-family="monospace" font-size="15" fill="#F3F5F7">Favicon / app-icon export sizes needed</text>
</svg>