<svg xmlns="http://www.w3.org/2000/svg" width="1200" height="630" viewBox="0 0 1200 630">
<rect x="0" y="0" width="1200" height="630" fill="#0A1420"/>
<line x1="285.6" y1="342.9" x2="443.9" y2="380.5" stroke="#16B8A6" stroke-opacity="0.06" stroke-width="1"/>
<line x1="285.6" y1="342.9" x2="311.2" y2="147.6" stroke="#16B8A6" stroke-opacity="0.02" stroke-width="1"/>
<line x1="285.6" y1="342.9" x2="421.1" y2="368.6" stroke="#16B8A6" stroke-opacity="0.09" stroke-width="1"/>
<line x1="443.9" y1="380.5" x2="627.8" y2="467.0" stroke="#16B8A6" stroke-opacity="0.02" stroke-width="1"/>
<line x1="443.9" y1="380.5" x2="474.0" y2="504.6" stroke="#16B8A6" stroke-opacity="0.10" stroke-width="1"/>
<line x1="443.9" y1="380.5" x2="608.7" y2="243.1" stroke="#E0A930" stroke-opacity="0.00" stroke-width="1"/>
<line x1="443.9" y1="380.5" x2="421.1" y2="368.6" stroke="#16B8A6" stroke-opacity="0.22" stroke-width="1"/>
<line x1="750.9" y1="41.3" x2="766.9" y2="94.9" stroke="#16B8A6" stroke-opacity="0.19" stroke-width="1"/>
<line x1="750.9" y1="41.3" x2="805.7" y2="40.3" stroke="#16B8A6" stroke-opacity="0.19" stroke-width="1"/>
<line x1="750.9" y1="41.3" x2="752.0" y2="189.6" stroke="#16B8A6" stroke-opacity="0.08" stroke-width="1"/>
<line x1="750.9" y1="41.3" x2="805.5" y2="102.8" stroke="#16B8A6" stroke-opacity="0.16" stroke-width="1"/>
<line x1="311.2" y1="147.6" x2="361.5" y2="19.5" stroke="#16B8A6" stroke-opacity="0.09" stroke-width="1"/>
<line x1="311.2" y1="147.6" x2="163.2" y2="136.7" stroke="#16B8A6" stroke-opacity="0.08" stroke-width="1"/>
<line x1="1194.8" y1="296.3" x2="1003.8" y2="300.1" stroke="#16B8A6" stroke-opacity="0.03" stroke-width="1"/>
<line x1="1194.8" y1="296.3" x2="1038.6" y2="297.8" stroke="#16B8A6" stroke-opacity="0.07" stroke-width="1"/>
<line x1="1194.8" y1="296.3" x2="1158.6" y2="274.8" stroke="#16B8A6" stroke-opacity="0.20" stroke-width="1"/>
<line x1="1194.8" y1="296.3" x2="1085.6" y2="358.5" stroke="#16B8A6" stroke-opacity="0.11" stroke-width="1"/>
<line x1="1003.8" y1="300.1" x2="909.9" y2="372.4" stroke="#16B8A6" stroke-opacity="0.11" stroke-width="1"/>
<line x1="1003.8" y1="300.1" x2="1038.6" y2="297.8" stroke="#16B8A6" stroke-opacity="0.21" stroke-width="1"/>
<line x1="1003.8" y1="300.1" x2="1158.6" y2="274.8" stroke="#16B8A6" stroke-opacity="0.07" stroke-width="1"/>
<line x1="1003.8" y1="300.1" x2="1085.6" y2="358.5" stroke="#16B8A6" stroke-opacity="0.13" stroke-width="1"/>
<line x1="766.9" y1="94.9" x2="805.7" y2="40.3" stroke="#16B8A6" stroke-opacity="0.17" stroke-width="1"/>
<line x1="766.9" y1="94.9" x2="752.0" y2="189.6" stroke="#16B8A6" stroke-opacity="0.14" stroke-width="1"/>
<line x1="766.9" y1="94.9" x2="608.7" y2="243.1" stroke="#E0A930" stroke-opacity="0.00" stroke-width="1"/>
<line x1="766.9" y1="94.9" x2="805.5" y2="102.8" stroke="#16B8A6" stroke-opacity="0.20" stroke-width="1"/>
<line x1="761.8" y1="546.9" x2="627.8" y2="467.0" stroke="#16B8A6" stroke-opacity="0.07" stroke-width="1"/>
<line x1="761.8" y1="546.9" x2="862.6" y2="553.7" stroke="#16B8A6" stroke-opacity="0.13" stroke-width="1"/>
<line x1="761.8" y1="546.9" x2="857.0" y2="580.3" stroke="#16B8A6" stroke-opacity="0.13" stroke-width="1"/>
<line x1="761.8" y1="546.9" x2="701.1" y2="569.6" stroke="#16B8A6" stroke-opacity="0.18" stroke-width="1"/>
<line x1="761.8" y1="546.9" x2="818.4" y2="585.2" stroke="#16B8A6" stroke-opacity="0.17" stroke-width="1"/>
<line x1="627.8" y1="467.0" x2="474.0" y2="504.6" stroke="#16B8A6" stroke-opacity="0.07" stroke-width="1"/>
<line x1="627.8" y1="467.0" x2="533.5" y2="589.4" stroke="#16B8A6" stroke-opacity="0.07" stroke-width="1"/>
<line x1="627.8" y1="467.0" x2="701.1" y2="569.6" stroke="#16B8A6" stroke-opacity="0.10" stroke-width="1"/>
<line x1="805.7" y1="40.3" x2="752.0" y2="189.6" stroke="#16B8A6" stroke-opacity="0.07" stroke-width="1"/>
<line x1="805.7" y1="40.3" x2="805.5" y2="102.8" stroke="#16B8A6" stroke-opacity="0.18" stroke-width="1"/>
<line x1="909.9" y1="372.4" x2="1038.6" y2="297.8" stroke="#16B8A6" stroke-opacity="0.08" stroke-width="1"/>
<line x1="909.9" y1="372.4" x2="862.6" y2="553.7" stroke="#16B8A6" stroke-opacity="0.03" stroke-width="1"/>
<line x1="909.9" y1="372.4" x2="857.0" y2="580.3" stroke="#16B8A6" stroke-opacity="0.00" stroke-width="1"/>
<line x1="909.9" y1="372.4" x2="1085.6" y2="358.5" stroke="#16B8A6" stroke-opacity="0.05" stroke-width="1"/>
<line x1="1038.6" y1="297.8" x2="1158.6" y2="274.8" stroke="#16B8A6" stroke-opacity="0.11" stroke-width="1"/>
<line x1="1038.6" y1="297.8" x2="1085.6" y2="358.5" stroke="#16B8A6" stroke-opacity="0.16" stroke-width="1"/>
<line x1="862.6" y1="553.7" x2="857.0" y2="580.3" stroke="#16B8A6" stroke-opacity="0.22" stroke-width="1"/>
<line x1="862.6" y1="553.7" x2="701.1" y2="569.6" stroke="#16B8A6" stroke-opacity="0.06" stroke-width="1"/>
<line x1="862.6" y1="553.7" x2="818.4" y2="585.2" stroke="#16B8A6" stroke-opacity="0.19" stroke-width="1"/>
<line x1="862.6" y1="553.7" x2="1027.7" y2="624.3" stroke="#16B8A6" stroke-opacity="0.04" stroke-width="1"/>
<line x1="862.6" y1="553.7" x2="1032.8" y2="607.7" stroke="#16B8A6" stroke-opacity="0.04" stroke-width="1"/>
<line x1="857.0" y1="580.3" x2="701.1" y2="569.6" stroke="#16B8A6" stroke-opacity="0.07" stroke-width="1"/>
<line x1="857.0" y1="580.3" x2="818.4" y2="585.2" stroke="#16B8A6" stroke-opacity="0.21" stroke-width="1"/>
<line x1="857.0" y1="580.3" x2="1027.7" y2="624.3" stroke="#16B8A6" stroke-opacity="0.05" stroke-width="1"/>
<line x1="857.0" y1="580.3" x2="1032.8" y2="607.7" stroke="#16B8A6" stroke-opacity="0.04" stroke-width="1"/>
<line x1="474.0" y1="504.6" x2="533.5" y2="589.4" stroke="#16B8A6" stroke-opacity="0.13" stroke-width="1"/>
<line x1="474.0" y1="504.6" x2="421.1" y2="368.6" stroke="#16B8A6" stroke-opacity="0.08" stroke-width="1"/>
<line x1="533.5" y1="589.4" x2="701.1" y2="569.6" stroke="#16B8A6" stroke-opacity="0.06" stroke-width="1"/>
<line x1="1158.6" y1="274.8" x2="1085.6" y2="358.5" stroke="#16B8A6" stroke-opacity="0.12" stroke-width="1"/>
<line x1="752.0" y1="189.6" x2="608.7" y2="243.1" stroke="#E0A930" stroke-opacity="0.07" stroke-width="1"/>
<line x1="752.0" y1="189.6" x2="805.5" y2="102.8" stroke="#16B8A6" stroke-opacity="0.13" stroke-width="1"/>
<line x1="701.1" y1="569.6" x2="818.4" y2="585.2" stroke="#16B8A6" stroke-opacity="0.11" stroke-width="1"/>
<line x1="818.4" y1="585.2" x2="1027.7" y2="624.3" stroke="#16B8A6" stroke-opacity="0.00" stroke-width="1"/>
<line x1="818.4" y1="585.2" x2="1032.8" y2="607.7" stroke="#16B8A6" stroke-opacity="0.00" stroke-width="1"/>
<line x1="1027.7" y1="624.3" x2="1032.8" y2="607.7" stroke="#16B8A6" stroke-opacity="0.23" stroke-width="1"/>
<circle cx="285.6" cy="342.9" r="2.6" fill="#2DD4C4" fill-opacity="0.55"/>
<circle cx="443.9" cy="380.5" r="2.6" fill="#2DD4C4" fill-opacity="0.55"/>
<circle cx="750.9" cy="41.3" r="2.6" fill="#2DD4C4" fill-opacity="0.55"/>
<circle cx="15.8" cy="527.6" r="2.6" fill="#2DD4C4" fill-opacity="0.55"/>
<circle cx="311.2" cy="147.6" r="2.6" fill="#2DD4C4" fill-opacity="0.55"/>
<circle cx="1194.8" cy="296.3" r="2.6" fill="#2DD4C4" fill-opacity="0.55"/>
<circle cx="1003.8" cy="300.1" r="2.6" fill="#2DD4C4" fill-opacity="0.55"/>
<circle cx="766.9" cy="94.9" r="2.6" fill="#2DD4C4" fill-opacity="0.55"/>
<circle cx="761.8" cy="546.9" r="2.6" fill="#2DD4C4" fill-opacity="0.55"/>
<circle cx="627.8" cy="467.0" r="2.6" fill="#2DD4C4" fill-opacity="0.55"/>
<circle cx="805.7" cy="40.3" r="2.6" fill="#2DD4C4" fill-opacity="0.55"/>
<circle cx="909.9" cy="372.4" r="2.6" fill="#2DD4C4" fill-opacity="0.55"/>
<circle cx="361.5" cy="19.5" r="2.6" fill="#2DD4C4" fill-opacity="0.55"/>
<circle cx="1038.6" cy="297.8" r="2.6" fill="#2DD4C4" fill-opacity="0.55"/>
<circle cx="862.6" cy="553.7" r="2.6" fill="#2DD4C4" fill-opacity="0.55"/>
<circle cx="857.0" cy="580.3" r="2.6" fill="#2DD4C4" fill-opacity="0.55"/>
<circle cx="474.0" cy="504.6" r="2.6" fill="#2DD4C4" fill-opacity="0.55"/>
<circle cx="533.5" cy="589.4" r="2.6" fill="#2DD4C4" fill-opacity="0.55"/>
<circle cx="1054.6" cy="61.4" r="2.6" fill="#2DD4C4" fill-opacity="0.55"/>
<circle cx="163.2" cy="136.7" r="2.6" fill="#2DD4C4" fill-opacity="0.55"/>
<circle cx="1158.6" cy="274.8" r="2.6" fill="#2DD4C4" fill-opacity="0.55"/>
<circle cx="752.0" cy="189.6" r="2.6" fill="#2DD4C4" fill-opacity="0.55"/>
<circle cx="608.7" cy="243.1" r="4.5" fill="#E0A930" fill-opacity="0.85"/>
<circle cx="421.1" cy="368.6" r="2.6" fill="#2DD4C4" fill-opacity="0.55"/>
<circle cx="701.1" cy="569.6" r="2.6" fill="#2DD4C4" fill-opacity="0.55"/>
<circle cx="818.4" cy="585.2" r="2.6" fill="#2DD4C4" fill-opacity="0.55"/>
<circle cx="1027.7" cy="624.3" r="2.6" fill="#2DD4C4" fill-opacity="0.55"/>
<circle cx="805.5" cy="102.8" r="2.6" fill="#2DD4C4" fill-opacity="0.55"/>
<circle cx="1032.8" cy="607.7" r="2.6" fill="#2DD4C4" fill-opacity="0.55"/>
<circle cx="1085.6" cy="358.5" r="2.6" fill="#2DD4C4" fill-opacity="0.55"/>
<text x="80" y="280" font-family="Space Grotesk, sans-serif" font-size="56" font-weight="700" fill="#F3F5F7">ZENZA FID</text>
<text x="80" y="330" font-family="IBM Plex Sans, sans-serif" font-size="24" fill="#8B96A8">Fraud intelligence, shared safely.</text>
<g id="guide-safezone" opacity="0.9">
  <rect x="60" y="60" width="1080" height="510" fill="none" stroke="#FF3399" stroke-width="2" stroke-dasharray="10,8"/>
  <text x="70" y="84" font-family="monospace" font-size="14" fill="#FF3399">SAFE ZONE — keep text/logo inside</text>
</g>
<text x="1184" y="614" font-family="monospace" font-size="12" fill="#8B96A8" text-anchor="end">OG / LINK PREVIEW IMAGE · 1200×630</text>
</svg>