<svg xmlns="http://www.w3.org/2000/svg" width="1080" height="1920" viewBox="0 0 1080 1920">
<rect x="0" y="0" width="1080" height="1920" fill="#0A1420"/>
<line x1="349.7" y1="289.6" x2="75.4" y2="174.2" stroke="#16B8A6" stroke-opacity="0.03" stroke-width="1"/>
<line x1="349.7" y1="289.6" x2="133.7" y2="428.6" stroke="#16B8A6" stroke-opacity="0.05" stroke-width="1"/>
<line x1="349.7" y1="289.6" x2="155.8" y2="226.2" stroke="#16B8A6" stroke-opacity="0.08" stroke-width="1"/>
<line x1="349.7" y1="289.6" x2="591.6" y2="120.6" stroke="#16B8A6" stroke-opacity="0.03" stroke-width="1"/>
<line x1="349.7" y1="289.6" x2="64.4" y2="395.4" stroke="#16B8A6" stroke-opacity="0.03" stroke-width="1"/>
<line x1="349.7" y1="289.6" x2="489.4" y2="575.6" stroke="#16B8A6" stroke-opacity="0.02" stroke-width="1"/>
<line x1="703.0" y1="139.1" x2="591.6" y2="120.6" stroke="#16B8A6" stroke-opacity="0.14" stroke-width="1"/>
<line x1="578.8" y1="702.1" x2="623.3" y2="761.6" stroke="#16B8A6" stroke-opacity="0.16" stroke-width="1"/>
<line x1="578.8" y1="702.1" x2="690.0" y2="715.0" stroke="#16B8A6" stroke-opacity="0.14" stroke-width="1"/>
<line x1="578.8" y1="702.1" x2="734.8" y2="821.0" stroke="#16B8A6" stroke-opacity="0.09" stroke-width="1"/>
<line x1="578.8" y1="702.1" x2="489.4" y2="575.6" stroke="#16B8A6" stroke-opacity="0.11" stroke-width="1"/>
<line x1="578.8" y1="702.1" x2="787.8" y2="552.8" stroke="#16B8A6" stroke-opacity="0.05" stroke-width="1"/>
<line x1="578.8" y1="702.1" x2="626.3" y2="875.9" stroke="#16B8A6" stroke-opacity="0.10" stroke-width="1"/>
<line x1="62.6" y1="974.3" x2="40.5" y2="832.6" stroke="#16B8A6" stroke-opacity="0.12" stroke-width="1"/>
<line x1="62.6" y1="974.3" x2="195.2" y2="1116.7" stroke="#16B8A6" stroke-opacity="0.09" stroke-width="1"/>
<line x1="62.6" y1="974.3" x2="339.3" y2="1124.3" stroke="#16B8A6" stroke-opacity="0.02" stroke-width="1"/>
<line x1="62.6" y1="974.3" x2="263.6" y2="1102.9" stroke="#16B8A6" stroke-opacity="0.06" stroke-width="1"/>
<line x1="62.6" y1="974.3" x2="164.1" y2="938.8" stroke="#16B8A6" stroke-opacity="0.14" stroke-width="1"/>
<line x1="62.6" y1="974.3" x2="42.3" y2="1283.0" stroke="#16B8A6" stroke-opacity="0.02" stroke-width="1"/>
<line x1="40.5" y1="832.6" x2="195.2" y2="1116.7" stroke="#16B8A6" stroke-opacity="0.02" stroke-width="1"/>
<line x1="40.5" y1="832.6" x2="263.6" y2="1102.9" stroke="#16B8A6" stroke-opacity="0.00" stroke-width="1"/>
<line x1="40.5" y1="832.6" x2="164.1" y2="938.8" stroke="#16B8A6" stroke-opacity="0.11" stroke-width="1"/>
<line x1="75.4" y1="174.2" x2="133.7" y2="428.6" stroke="#16B8A6" stroke-opacity="0.05" stroke-width="1"/>
<line x1="75.4" y1="174.2" x2="155.8" y2="226.2" stroke="#16B8A6" stroke-opacity="0.15" stroke-width="1"/>
<line x1="75.4" y1="174.2" x2="64.4" y2="395.4" stroke="#16B8A6" stroke-opacity="0.07" stroke-width="1"/>
<line x1="458.5" y1="1587.6" x2="677.6" y2="1819.6" stroke="#16B8A6" stroke-opacity="0.02" stroke-width="1"/>
<line x1="458.5" y1="1587.6" x2="333.2" y2="1567.0" stroke="#16B8A6" stroke-opacity="0.13" stroke-width="1"/>
<line x1="458.5" y1="1587.6" x2="567.2" y2="1680.3" stroke="#16B8A6" stroke-opacity="0.12" stroke-width="1"/>
<line x1="458.5" y1="1587.6" x2="451.6" y2="1453.7" stroke="#16B8A6" stroke-opacity="0.12" stroke-width="1"/>
<line x1="133.7" y1="428.6" x2="155.8" y2="226.2" stroke="#16B8A6" stroke-opacity="0.08" stroke-width="1"/>
<line x1="133.7" y1="428.6" x2="64.4" y2="395.4" stroke="#16B8A6" stroke-opacity="0.16" stroke-width="1"/>
<line x1="677.6" y1="1819.6" x2="567.2" y2="1680.3" stroke="#16B8A6" stroke-opacity="0.10" stroke-width="1"/>
<line x1="677.6" y1="1819.6" x2="907.2" y2="1813.8" stroke="#16B8A6" stroke-opacity="0.07" stroke-width="1"/>
<line x1="623.3" y1="761.6" x2="690.0" y2="715.0" stroke="#16B8A6" stroke-opacity="0.15" stroke-width="1"/>
<line x1="623.3" y1="761.6" x2="734.8" y2="821.0" stroke="#16B8A6" stroke-opacity="0.13" stroke-width="1"/>
<line x1="623.3" y1="761.6" x2="489.4" y2="575.6" stroke="#16B8A6" stroke-opacity="0.07" stroke-width="1"/>
<line x1="623.3" y1="761.6" x2="787.8" y2="552.8" stroke="#16B8A6" stroke-opacity="0.05" stroke-width="1"/>
<line x1="623.3" y1="761.6" x2="626.3" y2="875.9" stroke="#16B8A6" stroke-opacity="0.14" stroke-width="1"/>
<line x1="1054.4" y1="89.4" x2="1058.6" y2="226.7" stroke="#16B8A6" stroke-opacity="0.12" stroke-width="1"/>
<line x1="927.1" y1="556.0" x2="690.0" y2="715.0" stroke="#16B8A6" stroke-opacity="0.04" stroke-width="1"/>
<line x1="927.1" y1="556.0" x2="734.8" y2="821.0" stroke="#16B8A6" stroke-opacity="0.01" stroke-width="1"/>
<line x1="927.1" y1="556.0" x2="787.8" y2="552.8" stroke="#16B8A6" stroke-opacity="0.12" stroke-width="1"/>
<line x1="927.1" y1="556.0" x2="945.5" y2="602.4" stroke="#E0A930" stroke-opacity="0.17" stroke-width="1"/>
<line x1="155.8" y1="226.2" x2="64.4" y2="395.4" stroke="#16B8A6" stroke-opacity="0.09" stroke-width="1"/>
<line x1="333.2" y1="1567.0" x2="567.2" y2="1680.3" stroke="#16B8A6" stroke-opacity="0.05" stroke-width="1"/>
<line x1="333.2" y1="1567.0" x2="451.6" y2="1453.7" stroke="#16B8A6" stroke-opacity="0.11" stroke-width="1"/>
<line x1="195.2" y1="1116.7" x2="339.3" y2="1124.3" stroke="#16B8A6" stroke-opacity="0.12" stroke-width="1"/>
<line x1="195.2" y1="1116.7" x2="263.6" y2="1102.9" stroke="#16B8A6" stroke-opacity="0.16" stroke-width="1"/>
<line x1="195.2" y1="1116.7" x2="164.1" y2="938.8" stroke="#16B8A6" stroke-opacity="0.10" stroke-width="1"/>
<line x1="195.2" y1="1116.7" x2="42.3" y2="1283.0" stroke="#16B8A6" stroke-opacity="0.07" stroke-width="1"/>
<line x1="690.0" y1="715.0" x2="734.8" y2="821.0" stroke="#16B8A6" stroke-opacity="0.13" stroke-width="1"/>
<line x1="690.0" y1="715.0" x2="489.4" y2="575.6" stroke="#16B8A6" stroke-opacity="0.06" stroke-width="1"/>
<line x1="690.0" y1="715.0" x2="787.8" y2="552.8" stroke="#16B8A6" stroke-opacity="0.09" stroke-width="1"/>
<line x1="690.0" y1="715.0" x2="945.5" y2="602.4" stroke="#E0A930" stroke-opacity="0.04" stroke-width="1"/>
<line x1="690.0" y1="715.0" x2="626.3" y2="875.9" stroke="#16B8A6" stroke-opacity="0.10" stroke-width="1"/>
<line x1="734.8" y1="821.0" x2="489.4" y2="575.6" stroke="#16B8A6" stroke-opacity="0.00" stroke-width="1"/>
<line x1="734.8" y1="821.0" x2="787.8" y2="552.8" stroke="#16B8A6" stroke-opacity="0.04" stroke-width="1"/>
<line x1="734.8" y1="821.0" x2="825.7" y2="1100.2" stroke="#16B8A6" stroke-opacity="0.03" stroke-width="1"/>
<line x1="734.8" y1="821.0" x2="945.5" y2="602.4" stroke="#E0A930" stroke-opacity="0.03" stroke-width="1"/>
<line x1="734.8" y1="821.0" x2="750.9" y2="1141.2" stroke="#16B8A6" stroke-opacity="0.02" stroke-width="1"/>
<line x1="734.8" y1="821.0" x2="626.3" y2="875.9" stroke="#16B8A6" stroke-opacity="0.13" stroke-width="1"/>
<line x1="339.3" y1="1124.3" x2="263.6" y2="1102.9" stroke="#16B8A6" stroke-opacity="0.16" stroke-width="1"/>
<line x1="339.3" y1="1124.3" x2="451.6" y2="1453.7" stroke="#16B8A6" stroke-opacity="0.00" stroke-width="1"/>
<line x1="339.3" y1="1124.3" x2="164.1" y2="938.8" stroke="#16B8A6" stroke-opacity="0.06" stroke-width="1"/>
<line x1="339.3" y1="1124.3" x2="42.3" y2="1283.0" stroke="#16B8A6" stroke-opacity="0.01" stroke-width="1"/>
<line x1="489.4" y1="575.6" x2="787.8" y2="552.8" stroke="#16B8A6" stroke-opacity="0.03" stroke-width="1"/>
<line x1="489.4" y1="575.6" x2="626.3" y2="875.9" stroke="#16B8A6" stroke-opacity="0.01" stroke-width="1"/>
<line x1="857.9" y1="1342.1" x2="825.7" y2="1100.2" stroke="#16B8A6" stroke-opacity="0.06" stroke-width="1"/>
<line x1="857.9" y1="1342.1" x2="750.9" y2="1141.2" stroke="#16B8A6" stroke-opacity="0.07" stroke-width="1"/>
<line x1="263.6" y1="1102.9" x2="164.1" y2="938.8" stroke="#16B8A6" stroke-opacity="0.09" stroke-width="1"/>
<line x1="263.6" y1="1102.9" x2="42.3" y2="1283.0" stroke="#16B8A6" stroke-opacity="0.04" stroke-width="1"/>
<line x1="567.2" y1="1680.3" x2="451.6" y2="1453.7" stroke="#16B8A6" stroke-opacity="0.06" stroke-width="1"/>
<line x1="787.8" y1="552.8" x2="945.5" y2="602.4" stroke="#E0A930" stroke-opacity="0.11" stroke-width="1"/>
<line x1="825.7" y1="1100.2" x2="750.9" y2="1141.2" stroke="#16B8A6" stroke-opacity="0.15" stroke-width="1"/>
<line x1="825.7" y1="1100.2" x2="626.3" y2="875.9" stroke="#16B8A6" stroke-opacity="0.03" stroke-width="1"/>
<line x1="750.9" y1="1141.2" x2="626.3" y2="875.9" stroke="#16B8A6" stroke-opacity="0.03" stroke-width="1"/>
<circle cx="349.7" cy="289.6" r="2.6" fill="#2DD4C4" fill-opacity="0.55"/>
<circle cx="703.0" cy="139.1" r="2.6" fill="#2DD4C4" fill-opacity="0.55"/>
<circle cx="578.8" cy="702.1" r="2.6" fill="#2DD4C4" fill-opacity="0.55"/>
<circle cx="62.6" cy="974.3" r="2.6" fill="#2DD4C4" fill-opacity="0.55"/>
<circle cx="40.5" cy="832.6" r="2.6" fill="#2DD4C4" fill-opacity="0.55"/>
<circle cx="75.4" cy="174.2" r="2.6" fill="#2DD4C4" fill-opacity="0.55"/>
<circle cx="458.5" cy="1587.6" r="2.6" fill="#2DD4C4" fill-opacity="0.55"/>
<circle cx="133.7" cy="428.6" r="2.6" fill="#2DD4C4" fill-opacity="0.55"/>
<circle cx="677.6" cy="1819.6" r="2.6" fill="#2DD4C4" fill-opacity="0.55"/>
<circle cx="623.3" cy="761.6" r="2.6" fill="#2DD4C4" fill-opacity="0.55"/>
<circle cx="1054.4" cy="89.4" r="2.6" fill="#2DD4C4" fill-opacity="0.55"/>
<circle cx="927.1" cy="556.0" r="2.6" fill="#2DD4C4" fill-opacity="0.55"/>
<circle cx="155.8" cy="226.2" r="2.6" fill="#2DD4C4" fill-opacity="0.55"/>
<circle cx="333.2" cy="1567.0" r="2.6" fill="#2DD4C4" fill-opacity="0.55"/>
<circle cx="195.2" cy="1116.7" r="2.6" fill="#2DD4C4" fill-opacity="0.55"/>
<circle cx="690.0" cy="715.0" r="2.6" fill="#2DD4C4" fill-opacity="0.55"/>
<circle cx="591.6" cy="120.6" r="2.6" fill="#2DD4C4" fill-opacity="0.55"/>
<circle cx="64.4" cy="395.4" r="2.6" fill="#2DD4C4" fill-opacity="0.55"/>
<circle cx="734.8" cy="821.0" r="2.6" fill="#2DD4C4" fill-opacity="0.55"/>
<circle cx="339.3" cy="1124.3" r="2.6" fill="#2DD4C4" fill-opacity="0.55"/>
<circle cx="489.4" cy="575.6" r="2.6" fill="#2DD4C4" fill-opacity="0.55"/>
<circle cx="857.9" cy="1342.1" r="2.6" fill="#2DD4C4" fill-opacity="0.55"/>
<circle cx="263.6" cy="1102.9" r="2.6" fill="#2DD4C4" fill-opacity="0.55"/>
<circle cx="567.2" cy="1680.3" r="2.6" fill="#2DD4C4" fill-opacity="0.55"/>
<circle cx="787.8" cy="552.8" r="2.6" fill="#2DD4C4" fill-opacity="0.55"/>
<circle cx="1058.6" cy="226.7" r="2.6" fill="#2DD4C4" fill-opacity="0.55"/>
<circle cx="451.6" cy="1453.7" r="2.6" fill="#2DD4C4" fill-opacity="0.55"/>
<circle cx="164.1" cy="938.8" r="2.6" fill="#2DD4C4" fill-opacity="0.55"/>
<circle cx="42.3" cy="1283.0" r="2.6" fill="#2DD4C4" fill-opacity="0.55"/>
<circle cx="825.7" cy="1100.2" r="2.6" fill="#2DD4C4" fill-opacity="0.55"/>
<circle cx="945.5" cy="602.4" r="4.5" fill="#E0A930" fill-opacity="0.85"/>
<circle cx="750.9" cy="1141.2" r="2.6" fill="#2DD4C4" fill-opacity="0.55"/>
<circle cx="626.3" cy="875.9" r="2.6" fill="#2DD4C4" fill-opacity="0.55"/>
<circle cx="907.2" cy="1813.8" r="2.6" fill="#2DD4C4" fill-opacity="0.55"/>
<text x="540.0" y="940.0" font-family="Space Grotesk, sans-serif" font-size="54" font-weight="700" fill="#F3F5F7" text-anchor="middle">ZENZA FID</text>
<text x="540.0" y="994.0" font-family="IBM Plex Sans, sans-serif" font-size="24" fill="#8B96A8" text-anchor="middle">Headline / caption goes here</text>
<g id="guide-safezone" opacity="0.9">
  <rect x="40" y="220" width="1000" height="1480" fill="none" stroke="#FF3399" stroke-width="2" stroke-dasharray="10,8"/>
  <text x="50" y="244" font-family="monospace" font-size="14" fill="#FF3399">SAFE ZONE — top/bottom reserved for app UI</text>
</g>
<text x="1064" y="1904" font-family="monospace" font-size="12" fill="#8B96A8" text-anchor="end">IG/TIKTOK STORY · 1080×1920</text>
</svg>