<svg xmlns="http://www.w3.org/2000/svg" width="1080" height="1080" viewBox="0 0 1080 1080">
<rect x="0" y="0" width="1080" height="1080" fill="#0A1420"/>
<line x1="856.8" y1="887.7" x2="867.6" y2="740.5" stroke="#16B8A6" stroke-opacity="0.10" stroke-width="1"/>
<line x1="856.8" y1="887.7" x2="696.1" y2="753.7" stroke="#16B8A6" stroke-opacity="0.04" stroke-width="1"/>
<line x1="856.8" y1="887.7" x2="869.9" y2="1054.5" stroke="#16B8A6" stroke-opacity="0.08" stroke-width="1"/>
<line x1="523.8" y1="282.6" x2="685.7" y2="314.5" stroke="#16B8A6" stroke-opacity="0.08" stroke-width="1"/>
<line x1="523.8" y1="282.6" x2="649.9" y2="328.7" stroke="#16B8A6" stroke-opacity="0.11" stroke-width="1"/>
<line x1="523.8" y1="282.6" x2="636.3" y2="96.9" stroke="#16B8A6" stroke-opacity="0.03" stroke-width="1"/>
<line x1="523.8" y1="282.6" x2="337.3" y2="211.9" stroke="#16B8A6" stroke-opacity="0.05" stroke-width="1"/>
<line x1="523.8" y1="282.6" x2="522.4" y2="149.2" stroke="#16B8A6" stroke-opacity="0.11" stroke-width="1"/>
<line x1="0.5" y1="715.8" x2="208.4" y2="597.9" stroke="#16B8A6" stroke-opacity="0.01" stroke-width="1"/>
<line x1="0.5" y1="715.8" x2="100.6" y2="864.3" stroke="#16B8A6" stroke-opacity="0.07" stroke-width="1"/>
<line x1="0.5" y1="715.8" x2="216.9" y2="707.8" stroke="#16B8A6" stroke-opacity="0.03" stroke-width="1"/>
<line x1="0.5" y1="715.8" x2="126.2" y2="715.8" stroke="#16B8A6" stroke-opacity="0.12" stroke-width="1"/>
<line x1="507.9" y1="820.5" x2="403.0" y2="831.8" stroke="#16B8A6" stroke-opacity="0.14" stroke-width="1"/>
<line x1="507.9" y1="820.5" x2="294.5" y2="866.1" stroke="#16B8A6" stroke-opacity="0.03" stroke-width="1"/>
<line x1="507.9" y1="820.5" x2="581.4" y2="736.6" stroke="#16B8A6" stroke-opacity="0.14" stroke-width="1"/>
<line x1="507.9" y1="820.5" x2="389.2" y2="1007.4" stroke="#16B8A6" stroke-opacity="0.02" stroke-width="1"/>
<line x1="507.9" y1="820.5" x2="696.1" y2="753.7" stroke="#16B8A6" stroke-opacity="0.05" stroke-width="1"/>
<line x1="403.0" y1="831.8" x2="294.5" y2="866.1" stroke="#16B8A6" stroke-opacity="0.13" stroke-width="1"/>
<line x1="403.0" y1="831.8" x2="581.4" y2="736.6" stroke="#16B8A6" stroke-opacity="0.04" stroke-width="1"/>
<line x1="403.0" y1="831.8" x2="216.9" y2="707.8" stroke="#16B8A6" stroke-opacity="0.02" stroke-width="1"/>
<line x1="403.0" y1="831.8" x2="389.2" y2="1007.4" stroke="#16B8A6" stroke-opacity="0.07" stroke-width="1"/>
<line x1="403.0" y1="831.8" x2="226.7" y2="934.8" stroke="#16B8A6" stroke-opacity="0.04" stroke-width="1"/>
<line x1="294.5" y1="866.1" x2="100.6" y2="864.3" stroke="#16B8A6" stroke-opacity="0.05" stroke-width="1"/>
<line x1="294.5" y1="866.1" x2="216.9" y2="707.8" stroke="#16B8A6" stroke-opacity="0.07" stroke-width="1"/>
<line x1="294.5" y1="866.1" x2="389.2" y2="1007.4" stroke="#16B8A6" stroke-opacity="0.08" stroke-width="1"/>
<line x1="294.5" y1="866.1" x2="126.2" y2="715.8" stroke="#16B8A6" stroke-opacity="0.02" stroke-width="1"/>
<line x1="294.5" y1="866.1" x2="226.7" y2="934.8" stroke="#16B8A6" stroke-opacity="0.15" stroke-width="1"/>
<line x1="788.2" y1="447.1" x2="869.5" y2="286.8" stroke="#16B8A6" stroke-opacity="0.07" stroke-width="1"/>
<line x1="788.2" y1="447.1" x2="911.8" y2="362.4" stroke="#16B8A6" stroke-opacity="0.10" stroke-width="1"/>
<line x1="788.2" y1="447.1" x2="869.2" y2="480.8" stroke="#16B8A6" stroke-opacity="0.16" stroke-width="1"/>
<line x1="788.2" y1="447.1" x2="685.7" y2="314.5" stroke="#16B8A6" stroke-opacity="0.08" stroke-width="1"/>
<line x1="788.2" y1="447.1" x2="982.3" y2="555.8" stroke="#16B8A6" stroke-opacity="0.02" stroke-width="1"/>
<line x1="788.2" y1="447.1" x2="649.9" y2="328.7" stroke="#16B8A6" stroke-opacity="0.06" stroke-width="1"/>
<line x1="788.2" y1="447.1" x2="950.5" y2="567.3" stroke="#16B8A6" stroke-opacity="0.04" stroke-width="1"/>
<line x1="581.4" y1="736.6" x2="696.1" y2="753.7" stroke="#16B8A6" stroke-opacity="0.13" stroke-width="1"/>
<line x1="208.4" y1="597.9" x2="216.9" y2="707.8" stroke="#16B8A6" stroke-opacity="0.14" stroke-width="1"/>
<line x1="208.4" y1="597.9" x2="126.2" y2="715.8" stroke="#16B8A6" stroke-opacity="0.10" stroke-width="1"/>
<line x1="869.5" y1="286.8" x2="911.8" y2="362.4" stroke="#16B8A6" stroke-opacity="0.16" stroke-width="1"/>
<line x1="869.5" y1="286.8" x2="869.2" y2="480.8" stroke="#16B8A6" stroke-opacity="0.05" stroke-width="1"/>
<line x1="869.5" y1="286.8" x2="685.7" y2="314.5" stroke="#16B8A6" stroke-opacity="0.06" stroke-width="1"/>
<line x1="869.5" y1="286.8" x2="649.9" y2="328.7" stroke="#16B8A6" stroke-opacity="0.02" stroke-width="1"/>
<line x1="867.6" y1="740.5" x2="1027.5" y2="635.7" stroke="#16B8A6" stroke-opacity="0.05" stroke-width="1"/>
<line x1="867.6" y1="740.5" x2="982.3" y2="555.8" stroke="#16B8A6" stroke-opacity="0.03" stroke-width="1"/>
<line x1="867.6" y1="740.5" x2="696.1" y2="753.7" stroke="#16B8A6" stroke-opacity="0.07" stroke-width="1"/>
<line x1="867.6" y1="740.5" x2="950.5" y2="567.3" stroke="#16B8A6" stroke-opacity="0.05" stroke-width="1"/>
<line x1="911.8" y1="362.4" x2="869.2" y2="480.8" stroke="#16B8A6" stroke-opacity="0.12" stroke-width="1"/>
<line x1="911.8" y1="362.4" x2="685.7" y2="314.5" stroke="#16B8A6" stroke-opacity="0.01" stroke-width="1"/>
<line x1="911.8" y1="362.4" x2="982.3" y2="555.8" stroke="#16B8A6" stroke-opacity="0.04" stroke-width="1"/>
<line x1="911.8" y1="362.4" x2="950.5" y2="567.3" stroke="#16B8A6" stroke-opacity="0.04" stroke-width="1"/>
<line x1="100.6" y1="864.3" x2="216.9" y2="707.8" stroke="#16B8A6" stroke-opacity="0.05" stroke-width="1"/>
<line x1="100.6" y1="864.3" x2="126.2" y2="715.8" stroke="#16B8A6" stroke-opacity="0.10" stroke-width="1"/>
<line x1="100.6" y1="864.3" x2="226.7" y2="934.8" stroke="#16B8A6" stroke-opacity="0.10" stroke-width="1"/>
<line x1="869.2" y1="480.8" x2="1027.5" y2="635.7" stroke="#16B8A6" stroke-opacity="0.02" stroke-width="1"/>
<line x1="869.2" y1="480.8" x2="982.3" y2="555.8" stroke="#16B8A6" stroke-opacity="0.11" stroke-width="1"/>
<line x1="869.2" y1="480.8" x2="950.5" y2="567.3" stroke="#16B8A6" stroke-opacity="0.13" stroke-width="1"/>
<line x1="101.3" y1="212.9" x2="30.7" y2="390.3" stroke="#E0A930" stroke-opacity="0.05" stroke-width="1"/>
<line x1="101.3" y1="212.9" x2="337.3" y2="211.9" stroke="#16B8A6" stroke-opacity="0.01" stroke-width="1"/>
<line x1="685.7" y1="314.5" x2="649.9" y2="328.7" stroke="#16B8A6" stroke-opacity="0.21" stroke-width="1"/>
<line x1="685.7" y1="314.5" x2="636.3" y2="96.9" stroke="#16B8A6" stroke-opacity="0.02" stroke-width="1"/>
<line x1="685.7" y1="314.5" x2="522.4" y2="149.2" stroke="#16B8A6" stroke-opacity="0.01" stroke-width="1"/>
<line x1="1027.5" y1="635.7" x2="982.3" y2="555.8" stroke="#16B8A6" stroke-opacity="0.16" stroke-width="1"/>
<line x1="1027.5" y1="635.7" x2="950.5" y2="567.3" stroke="#16B8A6" stroke-opacity="0.14" stroke-width="1"/>
<line x1="216.9" y1="707.8" x2="126.2" y2="715.8" stroke="#16B8A6" stroke-opacity="0.16" stroke-width="1"/>
<line x1="216.9" y1="707.8" x2="226.7" y2="934.8" stroke="#16B8A6" stroke-opacity="0.02" stroke-width="1"/>
<line x1="389.2" y1="1007.4" x2="226.7" y2="934.8" stroke="#16B8A6" stroke-opacity="0.07" stroke-width="1"/>
<line x1="982.3" y1="555.8" x2="950.5" y2="567.3" stroke="#16B8A6" stroke-opacity="0.22" stroke-width="1"/>
<line x1="649.9" y1="328.7" x2="636.3" y2="96.9" stroke="#16B8A6" stroke-opacity="0.01" stroke-width="1"/>
<line x1="649.9" y1="328.7" x2="522.4" y2="149.2" stroke="#16B8A6" stroke-opacity="0.02" stroke-width="1"/>
<line x1="636.3" y1="96.9" x2="522.4" y2="149.2" stroke="#16B8A6" stroke-opacity="0.12" stroke-width="1"/>
<line x1="126.2" y1="715.8" x2="226.7" y2="934.8" stroke="#16B8A6" stroke-opacity="0.00" stroke-width="1"/>
<line x1="337.3" y1="211.9" x2="522.4" y2="149.2" stroke="#16B8A6" stroke-opacity="0.05" stroke-width="1"/>
<circle cx="856.8" cy="887.7" r="2.6" fill="#2DD4C4" fill-opacity="0.55"/>
<circle cx="523.8" cy="282.6" r="2.6" fill="#2DD4C4" fill-opacity="0.55"/>
<circle cx="0.5" cy="715.8" r="2.6" fill="#2DD4C4" fill-opacity="0.55"/>
<circle cx="507.9" cy="820.5" r="2.6" fill="#2DD4C4" fill-opacity="0.55"/>
<circle cx="403.0" cy="831.8" r="2.6" fill="#2DD4C4" fill-opacity="0.55"/>
<circle cx="294.5" cy="866.1" r="2.6" fill="#2DD4C4" fill-opacity="0.55"/>
<circle cx="788.2" cy="447.1" r="2.6" fill="#2DD4C4" fill-opacity="0.55"/>
<circle cx="581.4" cy="736.6" r="2.6" fill="#2DD4C4" fill-opacity="0.55"/>
<circle cx="208.4" cy="597.9" r="2.6" fill="#2DD4C4" fill-opacity="0.55"/>
<circle cx="869.5" cy="286.8" r="2.6" fill="#2DD4C4" fill-opacity="0.55"/>
<circle cx="867.6" cy="740.5" r="2.6" fill="#2DD4C4" fill-opacity="0.55"/>
<circle cx="911.8" cy="362.4" r="2.6" fill="#2DD4C4" fill-opacity="0.55"/>
<circle cx="100.6" cy="864.3" r="2.6" fill="#2DD4C4" fill-opacity="0.55"/>
<circle cx="869.2" cy="480.8" r="2.6" fill="#2DD4C4" fill-opacity="0.55"/>
<circle cx="101.3" cy="212.9" r="2.6" fill="#2DD4C4" fill-opacity="0.55"/>
<circle cx="685.7" cy="314.5" r="2.6" fill="#2DD4C4" fill-opacity="0.55"/>
<circle cx="1027.5" cy="635.7" r="2.6" fill="#2DD4C4" fill-opacity="0.55"/>
<circle cx="216.9" cy="707.8" r="2.6" fill="#2DD4C4" fill-opacity="0.55"/>
<circle cx="389.2" cy="1007.4" r="2.6" fill="#2DD4C4" fill-opacity="0.55"/>
<circle cx="982.3" cy="555.8" r="2.6" fill="#2DD4C4" fill-opacity="0.55"/>
<circle cx="696.1" cy="753.7" r="2.6" fill="#2DD4C4" fill-opacity="0.55"/>
<circle cx="869.9" cy="1054.5" r="2.6" fill="#2DD4C4" fill-opacity="0.55"/>
<circle cx="30.7" cy="390.3" r="4.5" fill="#E0A930" fill-opacity="0.85"/>
<circle cx="649.9" cy="328.7" r="2.6" fill="#2DD4C4" fill-opacity="0.55"/>
<circle cx="636.3" cy="96.9" r="2.6" fill="#2DD4C4" fill-opacity="0.55"/>
<circle cx="950.5" cy="567.3" r="2.6" fill="#2DD4C4" fill-opacity="0.55"/>
<circle cx="126.2" cy="715.8" r="2.6" fill="#2DD4C4" fill-opacity="0.55"/>
<circle cx="337.3" cy="211.9" r="2.6" fill="#2DD4C4" fill-opacity="0.55"/>
<circle cx="522.4" cy="149.2" r="2.6" fill="#2DD4C4" fill-opacity="0.55"/>
<circle cx="226.7" cy="934.8" r="2.6" fill="#2DD4C4" fill-opacity="0.55"/>
<text x="540.0" y="520.0" font-family="Space Grotesk, sans-serif" font-size="52" font-weight="700" fill="#F3F5F7" text-anchor="middle">ZENZA FID</text>
<text x="540.0" y="570.0" font-family="IBM Plex Sans, sans-serif" font-size="22" fill="#8B96A8" text-anchor="middle">Headline / caption goes here</text>
<g id="guide-safezone" opacity="0.9">
  <rect x="70" y="70" width="940" height="940" fill="none" stroke="#FF3399" stroke-width="2" stroke-dasharray="10,8"/>
  <text x="80" y="94" font-family="monospace" font-size="14" fill="#FF3399">SAFE ZONE</text>
</g>
<text x="1064" y="1064" font-family="monospace" font-size="12" fill="#8B96A8" text-anchor="end">INSTAGRAM / SQUARE POST · 1080×1080</text>
</svg>