<svg xmlns="http://www.w3.org/2000/svg" width="1500" height="500" viewBox="0 0 1500 500">
<rect x="0" y="0" width="1500" height="500" fill="#0A1420"/>
<line x1="934.4" y1="370.9" x2="1109.8" y2="461.2" stroke="#16B8A6" stroke-opacity="0.05" stroke-width="1"/>
<line x1="934.4" y1="370.9" x2="815.6" y2="287.0" stroke="#16B8A6" stroke-opacity="0.10" stroke-width="1"/>
<line x1="934.4" y1="370.9" x2="808.8" y2="338.9" stroke="#16B8A6" stroke-opacity="0.11" stroke-width="1"/>
<line x1="934.4" y1="370.9" x2="1036.0" y2="483.3" stroke="#16B8A6" stroke-opacity="0.09" stroke-width="1"/>
<line x1="934.4" y1="370.9" x2="1124.7" y2="422.4" stroke="#16B8A6" stroke-opacity="0.05" stroke-width="1"/>
<line x1="1192.8" y1="471.2" x2="1109.8" y2="461.2" stroke="#16B8A6" stroke-opacity="0.15" stroke-width="1"/>
<line x1="1192.8" y1="471.2" x2="1036.0" y2="483.3" stroke="#16B8A6" stroke-opacity="0.09" stroke-width="1"/>
<line x1="1192.8" y1="471.2" x2="1227.8" y2="240.4" stroke="#16B8A6" stroke-opacity="0.02" stroke-width="1"/>
<line x1="1192.8" y1="471.2" x2="1124.7" y2="422.4" stroke="#16B8A6" stroke-opacity="0.15" stroke-width="1"/>
<line x1="1109.8" y1="461.2" x2="1036.0" y2="483.3" stroke="#16B8A6" stroke-opacity="0.16" stroke-width="1"/>
<line x1="1109.8" y1="461.2" x2="1227.8" y2="240.4" stroke="#16B8A6" stroke-opacity="0.00" stroke-width="1"/>
<line x1="1109.8" y1="461.2" x2="1124.7" y2="422.4" stroke="#16B8A6" stroke-opacity="0.19" stroke-width="1"/>
<line x1="43.5" y1="232.8" x2="19.7" y2="108.4" stroke="#16B8A6" stroke-opacity="0.11" stroke-width="1"/>
<line x1="43.5" y1="232.8" x2="2.7" y2="435.7" stroke="#16B8A6" stroke-opacity="0.04" stroke-width="1"/>
<line x1="43.5" y1="232.8" x2="5.1" y2="339.0" stroke="#16B8A6" stroke-opacity="0.12" stroke-width="1"/>
<line x1="43.5" y1="232.8" x2="27.1" y2="393.9" stroke="#16B8A6" stroke-opacity="0.08" stroke-width="1"/>
<line x1="43.5" y1="232.8" x2="13.6" y2="23.4" stroke="#16B8A6" stroke-opacity="0.04" stroke-width="1"/>
<line x1="1415.0" y1="324.5" x2="1473.6" y2="436.2" stroke="#16B8A6" stroke-opacity="0.11" stroke-width="1"/>
<line x1="1415.0" y1="324.5" x2="1340.6" y2="149.4" stroke="#16B8A6" stroke-opacity="0.06" stroke-width="1"/>
<line x1="1415.0" y1="324.5" x2="1227.8" y2="240.4" stroke="#16B8A6" stroke-opacity="0.04" stroke-width="1"/>
<line x1="1351.4" y1="56.6" x2="1148.6" y2="79.8" stroke="#16B8A6" stroke-opacity="0.04" stroke-width="1"/>
<line x1="1351.4" y1="56.6" x2="1195.7" y2="69.4" stroke="#E0A930" stroke-opacity="0.09" stroke-width="1"/>
<line x1="1351.4" y1="56.6" x2="1340.6" y2="149.4" stroke="#16B8A6" stroke-opacity="0.14" stroke-width="1"/>
<line x1="1351.4" y1="56.6" x2="1227.8" y2="240.4" stroke="#16B8A6" stroke-opacity="0.03" stroke-width="1"/>
<line x1="1351.4" y1="56.6" x2="1462.6" y2="11.4" stroke="#16B8A6" stroke-opacity="0.12" stroke-width="1"/>
<line x1="703.6" y1="123.3" x2="815.6" y2="287.0" stroke="#16B8A6" stroke-opacity="0.05" stroke-width="1"/>
<line x1="703.6" y1="123.3" x2="926.2" y2="63.3" stroke="#16B8A6" stroke-opacity="0.02" stroke-width="1"/>
<line x1="703.6" y1="123.3" x2="808.8" y2="338.9" stroke="#16B8A6" stroke-opacity="0.01" stroke-width="1"/>
<line x1="703.6" y1="123.3" x2="541.8" y2="83.0" stroke="#16B8A6" stroke-opacity="0.08" stroke-width="1"/>
<line x1="703.6" y1="123.3" x2="506.8" y2="155.0" stroke="#16B8A6" stroke-opacity="0.05" stroke-width="1"/>
<line x1="703.6" y1="123.3" x2="549.3" y2="289.3" stroke="#16B8A6" stroke-opacity="0.02" stroke-width="1"/>
<line x1="815.6" y1="287.0" x2="926.2" y2="63.3" stroke="#16B8A6" stroke-opacity="0.00" stroke-width="1"/>
<line x1="815.6" y1="287.0" x2="808.8" y2="338.9" stroke="#16B8A6" stroke-opacity="0.18" stroke-width="1"/>
<line x1="19.7" y1="108.4" x2="218.6" y2="32.6" stroke="#16B8A6" stroke-opacity="0.04" stroke-width="1"/>
<line x1="19.7" y1="108.4" x2="5.1" y2="339.0" stroke="#16B8A6" stroke-opacity="0.02" stroke-width="1"/>
<line x1="19.7" y1="108.4" x2="13.6" y2="23.4" stroke="#16B8A6" stroke-opacity="0.15" stroke-width="1"/>
<line x1="419.2" y1="458.2" x2="434.0" y2="480.7" stroke="#16B8A6" stroke-opacity="0.20" stroke-width="1"/>
<line x1="419.2" y1="458.2" x2="307.2" y2="470.5" stroke="#16B8A6" stroke-opacity="0.12" stroke-width="1"/>
<line x1="419.2" y1="458.2" x2="452.0" y2="301.6" stroke="#16B8A6" stroke-opacity="0.08" stroke-width="1"/>
<line x1="419.2" y1="458.2" x2="473.7" y2="240.6" stroke="#16B8A6" stroke-opacity="0.03" stroke-width="1"/>
<line x1="419.2" y1="458.2" x2="549.3" y2="289.3" stroke="#16B8A6" stroke-opacity="0.04" stroke-width="1"/>
<line x1="1148.6" y1="79.8" x2="1195.7" y2="69.4" stroke="#E0A930" stroke-opacity="0.18" stroke-width="1"/>
<line x1="1148.6" y1="79.8" x2="926.2" y2="63.3" stroke="#16B8A6" stroke-opacity="0.03" stroke-width="1"/>
<line x1="1148.6" y1="79.8" x2="1340.6" y2="149.4" stroke="#16B8A6" stroke-opacity="0.04" stroke-width="1"/>
<line x1="1148.6" y1="79.8" x2="1227.8" y2="240.4" stroke="#16B8A6" stroke-opacity="0.07" stroke-width="1"/>
<line x1="1148.6" y1="79.8" x2="1057.0" y2="28.5" stroke="#16B8A6" stroke-opacity="0.13" stroke-width="1"/>
<line x1="1195.7" y1="69.4" x2="1340.6" y2="149.4" stroke="#E0A930" stroke-opacity="0.08" stroke-width="1"/>
<line x1="1195.7" y1="69.4" x2="1227.8" y2="240.4" stroke="#E0A930" stroke-opacity="0.07" stroke-width="1"/>
<line x1="1195.7" y1="69.4" x2="1057.0" y2="28.5" stroke="#E0A930" stroke-opacity="0.10" stroke-width="1"/>
<line x1="926.2" y1="63.3" x2="1057.0" y2="28.5" stroke="#16B8A6" stroke-opacity="0.10" stroke-width="1"/>
<line x1="2.7" y1="435.7" x2="5.1" y2="339.0" stroke="#16B8A6" stroke-opacity="0.14" stroke-width="1"/>
<line x1="2.7" y1="435.7" x2="27.1" y2="393.9" stroke="#16B8A6" stroke-opacity="0.18" stroke-width="1"/>
<line x1="314.2" y1="107.7" x2="541.8" y2="83.0" stroke="#16B8A6" stroke-opacity="0.02" stroke-width="1"/>
<line x1="314.2" y1="107.7" x2="218.6" y2="32.6" stroke="#16B8A6" stroke-opacity="0.12" stroke-width="1"/>
<line x1="314.2" y1="107.7" x2="452.0" y2="301.6" stroke="#16B8A6" stroke-opacity="0.01" stroke-width="1"/>
<line x1="314.2" y1="107.7" x2="506.8" y2="155.0" stroke="#16B8A6" stroke-opacity="0.05" stroke-width="1"/>
<line x1="314.2" y1="107.7" x2="473.7" y2="240.6" stroke="#16B8A6" stroke-opacity="0.04" stroke-width="1"/>
<line x1="434.0" y1="480.7" x2="307.2" y2="470.5" stroke="#16B8A6" stroke-opacity="0.11" stroke-width="1"/>
<line x1="434.0" y1="480.7" x2="452.0" y2="301.6" stroke="#16B8A6" stroke-opacity="0.06" stroke-width="1"/>
<line x1="434.0" y1="480.7" x2="473.7" y2="240.6" stroke="#16B8A6" stroke-opacity="0.01" stroke-width="1"/>
<line x1="434.0" y1="480.7" x2="549.3" y2="289.3" stroke="#16B8A6" stroke-opacity="0.03" stroke-width="1"/>
<line x1="307.2" y1="470.5" x2="452.0" y2="301.6" stroke="#16B8A6" stroke-opacity="0.03" stroke-width="1"/>
<line x1="1036.0" y1="483.3" x2="1124.7" y2="422.4" stroke="#16B8A6" stroke-opacity="0.13" stroke-width="1"/>
<line x1="1340.6" y1="149.4" x2="1227.8" y2="240.4" stroke="#16B8A6" stroke-opacity="0.10" stroke-width="1"/>
<line x1="1340.6" y1="149.4" x2="1462.6" y2="11.4" stroke="#16B8A6" stroke-opacity="0.06" stroke-width="1"/>
<line x1="541.8" y1="83.0" x2="452.0" y2="301.6" stroke="#16B8A6" stroke-opacity="0.01" stroke-width="1"/>
<line x1="541.8" y1="83.0" x2="506.8" y2="155.0" stroke="#16B8A6" stroke-opacity="0.15" stroke-width="1"/>
<line x1="541.8" y1="83.0" x2="473.7" y2="240.6" stroke="#16B8A6" stroke-opacity="0.07" stroke-width="1"/>
<line x1="541.8" y1="83.0" x2="549.3" y2="289.3" stroke="#16B8A6" stroke-opacity="0.04" stroke-width="1"/>
<line x1="218.6" y1="32.6" x2="13.6" y2="23.4" stroke="#16B8A6" stroke-opacity="0.04" stroke-width="1"/>
<line x1="452.0" y1="301.6" x2="506.8" y2="155.0" stroke="#16B8A6" stroke-opacity="0.09" stroke-width="1"/>
<line x1="452.0" y1="301.6" x2="473.7" y2="240.6" stroke="#16B8A6" stroke-opacity="0.17" stroke-width="1"/>
<line x1="452.0" y1="301.6" x2="549.3" y2="289.3" stroke="#16B8A6" stroke-opacity="0.14" stroke-width="1"/>
<line x1="5.1" y1="339.0" x2="27.1" y2="393.9" stroke="#16B8A6" stroke-opacity="0.17" stroke-width="1"/>
<line x1="506.8" y1="155.0" x2="473.7" y2="240.6" stroke="#16B8A6" stroke-opacity="0.14" stroke-width="1"/>
<line x1="506.8" y1="155.0" x2="549.3" y2="289.3" stroke="#16B8A6" stroke-opacity="0.10" stroke-width="1"/>
<line x1="1227.8" y1="240.4" x2="1124.7" y2="422.4" stroke="#16B8A6" stroke-opacity="0.04" stroke-width="1"/>
<line x1="473.7" y1="240.6" x2="549.3" y2="289.3" stroke="#16B8A6" stroke-opacity="0.15" stroke-width="1"/>
<circle cx="934.4" cy="370.9" r="2.6" fill="#2DD4C4" fill-opacity="0.55"/>
<circle cx="1192.8" cy="471.2" r="2.6" fill="#2DD4C4" fill-opacity="0.55"/>
<circle cx="1109.8" cy="461.2" r="2.6" fill="#2DD4C4" fill-opacity="0.55"/>
<circle cx="43.5" cy="232.8" r="2.6" fill="#2DD4C4" fill-opacity="0.55"/>
<circle cx="1415.0" cy="324.5" r="2.6" fill="#2DD4C4" fill-opacity="0.55"/>
<circle cx="1351.4" cy="56.6" r="2.6" fill="#2DD4C4" fill-opacity="0.55"/>
<circle cx="703.6" cy="123.3" r="2.6" fill="#2DD4C4" fill-opacity="0.55"/>
<circle cx="815.6" cy="287.0" r="2.6" fill="#2DD4C4" fill-opacity="0.55"/>
<circle cx="19.7" cy="108.4" r="2.6" fill="#2DD4C4" fill-opacity="0.55"/>
<circle cx="419.2" cy="458.2" r="2.6" fill="#2DD4C4" fill-opacity="0.55"/>
<circle cx="1148.6" cy="79.8" r="2.6" fill="#2DD4C4" fill-opacity="0.55"/>
<circle cx="1195.7" cy="69.4" r="4.5" fill="#E0A930" fill-opacity="0.85"/>
<circle cx="926.2" cy="63.3" r="2.6" fill="#2DD4C4" fill-opacity="0.55"/>
<circle cx="2.7" cy="435.7" r="2.6" fill="#2DD4C4" fill-opacity="0.55"/>
<circle cx="314.2" cy="107.7" r="2.6" fill="#2DD4C4" fill-opacity="0.55"/>
<circle cx="1473.6" cy="436.2" r="2.6" fill="#2DD4C4" fill-opacity="0.55"/>
<circle cx="434.0" cy="480.7" r="2.6" fill="#2DD4C4" fill-opacity="0.55"/>
<circle cx="808.8" cy="338.9" r="2.6" fill="#2DD4C4" fill-opacity="0.55"/>
<circle cx="307.2" cy="470.5" r="2.6" fill="#2DD4C4" fill-opacity="0.55"/>
<circle cx="1036.0" cy="483.3" r="2.6" fill="#2DD4C4" fill-opacity="0.55"/>
<circle cx="1340.6" cy="149.4" r="2.6" fill="#2DD4C4" fill-opacity="0.55"/>
<circle cx="541.8" cy="83.0" r="2.6" fill="#2DD4C4" fill-opacity="0.55"/>
<circle cx="218.6" cy="32.6" r="2.6" fill="#2DD4C4" fill-opacity="0.55"/>
<circle cx="452.0" cy="301.6" r="2.6" fill="#2DD4C4" fill-opacity="0.55"/>
<circle cx="5.1" cy="339.0" r="2.6" fill="#2DD4C4" fill-opacity="0.55"/>
<circle cx="506.8" cy="155.0" r="2.6" fill="#2DD4C4" fill-opacity="0.55"/>
<circle cx="1227.8" cy="240.4" r="2.6" fill="#2DD4C4" fill-opacity="0.55"/>
<circle cx="473.7" cy="240.6" r="2.6" fill="#2DD4C4" fill-opacity="0.55"/>
<circle cx="1057.0" cy="28.5" r="2.6" fill="#2DD4C4" fill-opacity="0.55"/>
<circle cx="1462.6" cy="11.4" r="2.6" fill="#2DD4C4" fill-opacity="0.55"/>
<circle cx="1124.7" cy="422.4" r="2.6" fill="#2DD4C4" fill-opacity="0.55"/>
<circle cx="27.1" cy="393.9" r="2.6" fill="#2DD4C4" fill-opacity="0.55"/>
<circle cx="549.3" cy="289.3" r="2.6" fill="#2DD4C4" fill-opacity="0.55"/>
<circle cx="13.6" cy="23.4" r="2.6" fill="#2DD4C4" fill-opacity="0.55"/>
<text x="90" y="230" font-family="Space Grotesk, sans-serif" font-size="48" font-weight="700" fill="#F3F5F7">ZENZA TECHNOLOGY</text>
<text x="90" y="272" font-family="IBM Plex Sans, sans-serif" font-size="21" fill="#8B96A8">Fraud intelligence for African financial institutions</text>
<circle cx="150" cy="460" r="80" fill="none" stroke="#FF3399" stroke-width="2" stroke-dasharray="8,8"/>
<text x="150" y="460" font-family="monospace" font-size="11" fill="#FF3399" text-anchor="middle">avatar overlap zone</text>
<text x="1484" y="484" font-family="monospace" font-size="12" fill="#8B96A8" text-anchor="end">X HEADER · 1500×500</text>
</svg>