<svg xmlns="http://www.w3.org/2000/svg" width="1584" height="396" viewBox="0 0 1584 396">
<rect x="0" y="0" width="1584" height="396" fill="#0A1420"/>
<line x1="373.9" y1="40.9" x2="627.4" y2="61.4" stroke="#16B8A6" stroke-opacity="0.01" stroke-width="1"/>
<line x1="373.9" y1="40.9" x2="273.5" y2="42.0" stroke="#16B8A6" stroke-opacity="0.14" stroke-width="1"/>
<line x1="373.9" y1="40.9" x2="490.8" y2="248.3" stroke="#16B8A6" stroke-opacity="0.02" stroke-width="1"/>
<line x1="373.9" y1="40.9" x2="255.5" y2="120.8" stroke="#16B8A6" stroke-opacity="0.10" stroke-width="1"/>
<line x1="373.9" y1="40.9" x2="444.2" y2="211.7" stroke="#16B8A6" stroke-opacity="0.07" stroke-width="1"/>
<line x1="373.9" y1="40.9" x2="507.9" y2="221.2" stroke="#16B8A6" stroke-opacity="0.03" stroke-width="1"/>
<line x1="627.4" y1="61.4" x2="850.1" y2="109.6" stroke="#16B8A6" stroke-opacity="0.03" stroke-width="1"/>
<line x1="627.4" y1="61.4" x2="490.8" y2="248.3" stroke="#16B8A6" stroke-opacity="0.03" stroke-width="1"/>
<line x1="627.4" y1="61.4" x2="801.4" y2="70.4" stroke="#16B8A6" stroke-opacity="0.07" stroke-width="1"/>
<line x1="627.4" y1="61.4" x2="750.2" y2="35.4" stroke="#E0A930" stroke-opacity="0.12" stroke-width="1"/>
<line x1="627.4" y1="61.4" x2="867.5" y2="118.9" stroke="#16B8A6" stroke-opacity="0.01" stroke-width="1"/>
<line x1="627.4" y1="61.4" x2="805.3" y2="163.9" stroke="#16B8A6" stroke-opacity="0.05" stroke-width="1"/>
<line x1="627.4" y1="61.4" x2="444.2" y2="211.7" stroke="#16B8A6" stroke-opacity="0.02" stroke-width="1"/>
<line x1="627.4" y1="61.4" x2="746.4" y2="135.8" stroke="#16B8A6" stroke-opacity="0.10" stroke-width="1"/>
<line x1="627.4" y1="61.4" x2="653.9" y2="80.3" stroke="#16B8A6" stroke-opacity="0.20" stroke-width="1"/>
<line x1="627.4" y1="61.4" x2="563.6" y2="295.8" stroke="#16B8A6" stroke-opacity="0.02" stroke-width="1"/>
<line x1="627.4" y1="61.4" x2="507.9" y2="221.2" stroke="#16B8A6" stroke-opacity="0.05" stroke-width="1"/>
<line x1="105.4" y1="159.0" x2="273.5" y2="42.0" stroke="#16B8A6" stroke-opacity="0.05" stroke-width="1"/>
<line x1="105.4" y1="159.0" x2="255.5" y2="120.8" stroke="#16B8A6" stroke-opacity="0.09" stroke-width="1"/>
<line x1="105.4" y1="159.0" x2="73.4" y2="248.0" stroke="#16B8A6" stroke-opacity="0.14" stroke-width="1"/>
<line x1="105.4" y1="159.0" x2="97.6" y2="90.6" stroke="#16B8A6" stroke-opacity="0.17" stroke-width="1"/>
<line x1="1454.0" y1="317.0" x2="1313.0" y2="319.4" stroke="#16B8A6" stroke-opacity="0.10" stroke-width="1"/>
<line x1="1454.0" y1="317.0" x2="1480.4" y2="342.7" stroke="#16B8A6" stroke-opacity="0.19" stroke-width="1"/>
<line x1="1454.0" y1="317.0" x2="1439.7" y2="226.7" stroke="#16B8A6" stroke-opacity="0.15" stroke-width="1"/>
<line x1="1454.0" y1="317.0" x2="1397.6" y2="335.8" stroke="#16B8A6" stroke-opacity="0.17" stroke-width="1"/>
<line x1="1212.0" y1="87.9" x2="1313.0" y2="319.4" stroke="#16B8A6" stroke-opacity="0.01" stroke-width="1"/>
<line x1="1212.0" y1="87.9" x2="1267.9" y2="76.6" stroke="#16B8A6" stroke-opacity="0.18" stroke-width="1"/>
<line x1="1212.0" y1="87.9" x2="1159.3" y2="338.4" stroke="#16B8A6" stroke-opacity="0.00" stroke-width="1"/>
<line x1="1212.0" y1="87.9" x2="1394.0" y2="34.3" stroke="#16B8A6" stroke-opacity="0.06" stroke-width="1"/>
<line x1="1212.0" y1="87.9" x2="1287.1" y2="17.1" stroke="#16B8A6" stroke-opacity="0.14" stroke-width="1"/>
<line x1="1212.0" y1="87.9" x2="1002.1" y2="109.4" stroke="#16B8A6" stroke-opacity="0.04" stroke-width="1"/>
<line x1="1212.0" y1="87.9" x2="1432.4" y2="40.0" stroke="#16B8A6" stroke-opacity="0.03" stroke-width="1"/>
<line x1="850.1" y1="109.6" x2="959.7" y2="266.0" stroke="#16B8A6" stroke-opacity="0.06" stroke-width="1"/>
<line x1="850.1" y1="109.6" x2="801.4" y2="70.4" stroke="#16B8A6" stroke-opacity="0.17" stroke-width="1"/>
<line x1="850.1" y1="109.6" x2="750.2" y2="35.4" stroke="#E0A930" stroke-opacity="0.12" stroke-width="1"/>
<line x1="850.1" y1="109.6" x2="867.5" y2="118.9" stroke="#16B8A6" stroke-opacity="0.21" stroke-width="1"/>
<line x1="850.1" y1="109.6" x2="805.3" y2="163.9" stroke="#16B8A6" stroke-opacity="0.16" stroke-width="1"/>
<line x1="850.1" y1="109.6" x2="948.7" y2="170.7" stroke="#16B8A6" stroke-opacity="0.13" stroke-width="1"/>
<line x1="850.1" y1="109.6" x2="746.4" y2="135.8" stroke="#16B8A6" stroke-opacity="0.13" stroke-width="1"/>
<line x1="850.1" y1="109.6" x2="653.9" y2="80.3" stroke="#16B8A6" stroke-opacity="0.05" stroke-width="1"/>
<line x1="850.1" y1="109.6" x2="1002.1" y2="109.4" stroke="#16B8A6" stroke-opacity="0.09" stroke-width="1"/>
<line x1="273.5" y1="42.0" x2="255.5" y2="120.8" stroke="#16B8A6" stroke-opacity="0.16" stroke-width="1"/>
<line x1="273.5" y1="42.0" x2="444.2" y2="211.7" stroke="#16B8A6" stroke-opacity="0.02" stroke-width="1"/>
<line x1="273.5" y1="42.0" x2="97.6" y2="90.6" stroke="#16B8A6" stroke-opacity="0.07" stroke-width="1"/>
<line x1="339.6" y1="367.3" x2="490.8" y2="248.3" stroke="#16B8A6" stroke-opacity="0.06" stroke-width="1"/>
<line x1="339.6" y1="367.3" x2="255.5" y2="120.8" stroke="#16B8A6" stroke-opacity="0.00" stroke-width="1"/>
<line x1="339.6" y1="367.3" x2="444.2" y2="211.7" stroke="#16B8A6" stroke-opacity="0.06" stroke-width="1"/>
<line x1="339.6" y1="367.3" x2="563.6" y2="295.8" stroke="#16B8A6" stroke-opacity="0.02" stroke-width="1"/>
<line x1="339.6" y1="367.3" x2="507.9" y2="221.2" stroke="#16B8A6" stroke-opacity="0.03" stroke-width="1"/>
<line x1="1313.0" y1="319.4" x2="1267.9" y2="76.6" stroke="#16B8A6" stroke-opacity="0.01" stroke-width="1"/>
<line x1="1313.0" y1="319.4" x2="1159.3" y2="338.4" stroke="#16B8A6" stroke-opacity="0.09" stroke-width="1"/>
<line x1="1313.0" y1="319.4" x2="1480.4" y2="342.7" stroke="#16B8A6" stroke-opacity="0.08" stroke-width="1"/>
<line x1="1313.0" y1="319.4" x2="1439.7" y2="226.7" stroke="#16B8A6" stroke-opacity="0.09" stroke-width="1"/>
<line x1="1313.0" y1="319.4" x2="1397.6" y2="335.8" stroke="#16B8A6" stroke-opacity="0.15" stroke-width="1"/>
<line x1="1267.9" y1="76.6" x2="1394.0" y2="34.3" stroke="#16B8A6" stroke-opacity="0.11" stroke-width="1"/>
<line x1="1267.9" y1="76.6" x2="1439.7" y2="226.7" stroke="#16B8A6" stroke-opacity="0.03" stroke-width="1"/>
<line x1="1267.9" y1="76.6" x2="1287.1" y2="17.1" stroke="#16B8A6" stroke-opacity="0.17" stroke-width="1"/>
<line x1="1267.9" y1="76.6" x2="1432.4" y2="40.0" stroke="#16B8A6" stroke-opacity="0.08" stroke-width="1"/>
<line x1="490.8" y1="248.3" x2="444.2" y2="211.7" stroke="#16B8A6" stroke-opacity="0.17" stroke-width="1"/>
<line x1="490.8" y1="248.3" x2="653.9" y2="80.3" stroke="#16B8A6" stroke-opacity="0.02" stroke-width="1"/>
<line x1="490.8" y1="248.3" x2="563.6" y2="295.8" stroke="#16B8A6" stroke-opacity="0.15" stroke-width="1"/>
<line x1="490.8" y1="248.3" x2="507.9" y2="221.2" stroke="#16B8A6" stroke-opacity="0.20" stroke-width="1"/>
<line x1="1159.3" y1="338.4" x2="959.7" y2="266.0" stroke="#16B8A6" stroke-opacity="0.04" stroke-width="1"/>
<line x1="1159.3" y1="338.4" x2="1397.6" y2="335.8" stroke="#16B8A6" stroke-opacity="0.02" stroke-width="1"/>
<line x1="1394.0" y1="34.3" x2="1439.7" y2="226.7" stroke="#16B8A6" stroke-opacity="0.05" stroke-width="1"/>
<line x1="1394.0" y1="34.3" x2="1287.1" y2="17.1" stroke="#16B8A6" stroke-opacity="0.13" stroke-width="1"/>
<line x1="1394.0" y1="34.3" x2="1579.7" y2="77.4" stroke="#16B8A6" stroke-opacity="0.06" stroke-width="1"/>
<line x1="1394.0" y1="34.3" x2="1432.4" y2="40.0" stroke="#16B8A6" stroke-opacity="0.19" stroke-width="1"/>
<line x1="959.7" y1="266.0" x2="801.4" y2="70.4" stroke="#16B8A6" stroke-opacity="0.01" stroke-width="1"/>
<line x1="959.7" y1="266.0" x2="867.5" y2="118.9" stroke="#16B8A6" stroke-opacity="0.08" stroke-width="1"/>
<line x1="959.7" y1="266.0" x2="805.3" y2="163.9" stroke="#16B8A6" stroke-opacity="0.07" stroke-width="1"/>
<line x1="959.7" y1="266.0" x2="948.7" y2="170.7" stroke="#16B8A6" stroke-opacity="0.14" stroke-width="1"/>
<line x1="959.7" y1="266.0" x2="746.4" y2="135.8" stroke="#16B8A6" stroke-opacity="0.01" stroke-width="1"/>
<line x1="959.7" y1="266.0" x2="1002.1" y2="109.4" stroke="#16B8A6" stroke-opacity="0.09" stroke-width="1"/>
<line x1="801.4" y1="70.4" x2="750.2" y2="35.4" stroke="#E0A930" stroke-opacity="0.17" stroke-width="1"/>
<line x1="801.4" y1="70.4" x2="867.5" y2="118.9" stroke="#16B8A6" stroke-opacity="0.15" stroke-width="1"/>
<line x1="801.4" y1="70.4" x2="805.3" y2="163.9" stroke="#16B8A6" stroke-opacity="0.14" stroke-width="1"/>
<line x1="801.4" y1="70.4" x2="948.7" y2="170.7" stroke="#16B8A6" stroke-opacity="0.07" stroke-width="1"/>
<line x1="801.4" y1="70.4" x2="746.4" y2="135.8" stroke="#16B8A6" stroke-opacity="0.15" stroke-width="1"/>
<line x1="801.4" y1="70.4" x2="653.9" y2="80.3" stroke="#16B8A6" stroke-opacity="0.10" stroke-width="1"/>
<line x1="801.4" y1="70.4" x2="1002.1" y2="109.4" stroke="#16B8A6" stroke-opacity="0.05" stroke-width="1"/>
<line x1="750.2" y1="35.4" x2="867.5" y2="118.9" stroke="#E0A930" stroke-opacity="0.10" stroke-width="1"/>
<line x1="750.2" y1="35.4" x2="805.3" y2="163.9" stroke="#E0A930" stroke-opacity="0.10" stroke-width="1"/>
<line x1="750.2" y1="35.4" x2="948.7" y2="170.7" stroke="#E0A930" stroke-opacity="0.02" stroke-width="1"/>
<line x1="750.2" y1="35.4" x2="746.4" y2="135.8" stroke="#E0A930" stroke-opacity="0.14" stroke-width="1"/>
<line x1="750.2" y1="35.4" x2="653.9" y2="80.3" stroke="#E0A930" stroke-opacity="0.13" stroke-width="1"/>
<line x1="1480.4" y1="342.7" x2="1439.7" y2="226.7" stroke="#16B8A6" stroke-opacity="0.12" stroke-width="1"/>
<line x1="1480.4" y1="342.7" x2="1397.6" y2="335.8" stroke="#16B8A6" stroke-opacity="0.15" stroke-width="1"/>
<line x1="867.5" y1="118.9" x2="805.3" y2="163.9" stroke="#16B8A6" stroke-opacity="0.16" stroke-width="1"/>
<line x1="867.5" y1="118.9" x2="948.7" y2="170.7" stroke="#16B8A6" stroke-opacity="0.14" stroke-width="1"/>
<line x1="867.5" y1="118.9" x2="746.4" y2="135.8" stroke="#16B8A6" stroke-opacity="0.12" stroke-width="1"/>
<line x1="867.5" y1="118.9" x2="653.9" y2="80.3" stroke="#16B8A6" stroke-opacity="0.04" stroke-width="1"/>
<line x1="867.5" y1="118.9" x2="1002.1" y2="109.4" stroke="#16B8A6" stroke-opacity="0.11" stroke-width="1"/>
<line x1="1439.7" y1="226.7" x2="1397.6" y2="335.8" stroke="#16B8A6" stroke-opacity="0.12" stroke-width="1"/>
<line x1="1439.7" y1="226.7" x2="1287.1" y2="17.1" stroke="#16B8A6" stroke-opacity="0.00" stroke-width="1"/>
<line x1="1439.7" y1="226.7" x2="1579.7" y2="77.4" stroke="#16B8A6" stroke-opacity="0.05" stroke-width="1"/>
<line x1="1439.7" y1="226.7" x2="1432.4" y2="40.0" stroke="#16B8A6" stroke-opacity="0.06" stroke-width="1"/>
<line x1="805.3" y1="163.9" x2="948.7" y2="170.7" stroke="#16B8A6" stroke-opacity="0.10" stroke-width="1"/>
<line x1="805.3" y1="163.9" x2="746.4" y2="135.8" stroke="#16B8A6" stroke-opacity="0.17" stroke-width="1"/>
<line x1="805.3" y1="163.9" x2="653.9" y2="80.3" stroke="#16B8A6" stroke-opacity="0.08" stroke-width="1"/>
<line x1="805.3" y1="163.9" x2="1002.1" y2="109.4" stroke="#16B8A6" stroke-opacity="0.05" stroke-width="1"/>
<line x1="948.7" y1="170.7" x2="746.4" y2="135.8" stroke="#16B8A6" stroke-opacity="0.05" stroke-width="1"/>
<line x1="948.7" y1="170.7" x2="1002.1" y2="109.4" stroke="#16B8A6" stroke-opacity="0.15" stroke-width="1"/>
<line x1="255.5" y1="120.8" x2="73.4" y2="248.0" stroke="#16B8A6" stroke-opacity="0.03" stroke-width="1"/>
<line x1="255.5" y1="120.8" x2="444.2" y2="211.7" stroke="#16B8A6" stroke-opacity="0.04" stroke-width="1"/>
<line x1="255.5" y1="120.8" x2="97.6" y2="90.6" stroke="#16B8A6" stroke-opacity="0.09" stroke-width="1"/>
<line x1="1287.1" y1="17.1" x2="1432.4" y2="40.0" stroke="#16B8A6" stroke-opacity="0.10" stroke-width="1"/>
<line x1="73.4" y1="248.0" x2="97.6" y2="90.6" stroke="#16B8A6" stroke-opacity="0.09" stroke-width="1"/>
<line x1="444.2" y1="211.7" x2="653.9" y2="80.3" stroke="#16B8A6" stroke-opacity="0.01" stroke-width="1"/>
<line x1="444.2" y1="211.7" x2="563.6" y2="295.8" stroke="#16B8A6" stroke-opacity="0.10" stroke-width="1"/>
<line x1="444.2" y1="211.7" x2="507.9" y2="221.2" stroke="#16B8A6" stroke-opacity="0.17" stroke-width="1"/>
<line x1="746.4" y1="135.8" x2="653.9" y2="80.3" stroke="#16B8A6" stroke-opacity="0.13" stroke-width="1"/>
<line x1="746.4" y1="135.8" x2="1002.1" y2="109.4" stroke="#16B8A6" stroke-opacity="0.00" stroke-width="1"/>
<line x1="746.4" y1="135.8" x2="563.6" y2="295.8" stroke="#16B8A6" stroke-opacity="0.02" stroke-width="1"/>
<line x1="746.4" y1="135.8" x2="507.9" y2="221.2" stroke="#16B8A6" stroke-opacity="0.01" stroke-width="1"/>
<line x1="1579.7" y1="77.4" x2="1432.4" y2="40.0" stroke="#16B8A6" stroke-opacity="0.09" stroke-width="1"/>
<line x1="653.9" y1="80.3" x2="563.6" y2="295.8" stroke="#16B8A6" stroke-opacity="0.02" stroke-width="1"/>
<line x1="653.9" y1="80.3" x2="507.9" y2="221.2" stroke="#16B8A6" stroke-opacity="0.05" stroke-width="1"/>
<line x1="563.6" y1="295.8" x2="507.9" y2="221.2" stroke="#16B8A6" stroke-opacity="0.14" stroke-width="1"/>
<circle cx="373.9" cy="40.9" r="2.6" fill="#2DD4C4" fill-opacity="0.55"/>
<circle cx="627.4" cy="61.4" r="2.6" fill="#2DD4C4" fill-opacity="0.55"/>
<circle cx="105.4" cy="159.0" r="2.6" fill="#2DD4C4" fill-opacity="0.55"/>
<circle cx="1454.0" cy="317.0" r="2.6" fill="#2DD4C4" fill-opacity="0.55"/>
<circle cx="1212.0" cy="87.9" r="2.6" fill="#2DD4C4" fill-opacity="0.55"/>
<circle cx="850.1" cy="109.6" r="2.6" fill="#2DD4C4" fill-opacity="0.55"/>
<circle cx="273.5" cy="42.0" r="2.6" fill="#2DD4C4" fill-opacity="0.55"/>
<circle cx="339.6" cy="367.3" r="2.6" fill="#2DD4C4" fill-opacity="0.55"/>
<circle cx="1313.0" cy="319.4" r="2.6" fill="#2DD4C4" fill-opacity="0.55"/>
<circle cx="1267.9" cy="76.6" r="2.6" fill="#2DD4C4" fill-opacity="0.55"/>
<circle cx="490.8" cy="248.3" r="2.6" fill="#2DD4C4" fill-opacity="0.55"/>
<circle cx="1159.3" cy="338.4" r="2.6" fill="#2DD4C4" fill-opacity="0.55"/>
<circle cx="1394.0" cy="34.3" r="2.6" fill="#2DD4C4" fill-opacity="0.55"/>
<circle cx="959.7" cy="266.0" r="2.6" fill="#2DD4C4" fill-opacity="0.55"/>
<circle cx="801.4" cy="70.4" r="2.6" fill="#2DD4C4" fill-opacity="0.55"/>
<circle cx="750.2" cy="35.4" r="4.5" fill="#E0A930" fill-opacity="0.85"/>
<circle cx="1480.4" cy="342.7" r="2.6" fill="#2DD4C4" fill-opacity="0.55"/>
<circle cx="867.5" cy="118.9" r="2.6" fill="#2DD4C4" fill-opacity="0.55"/>
<circle cx="1439.7" cy="226.7" r="2.6" fill="#2DD4C4" fill-opacity="0.55"/>
<circle cx="1397.6" cy="335.8" r="2.6" fill="#2DD4C4" fill-opacity="0.55"/>
<circle cx="805.3" cy="163.9" r="2.6" fill="#2DD4C4" fill-opacity="0.55"/>
<circle cx="948.7" cy="170.7" r="2.6" fill="#2DD4C4" fill-opacity="0.55"/>
<circle cx="255.5" cy="120.8" r="2.6" fill="#2DD4C4" fill-opacity="0.55"/>
<circle cx="1287.1" cy="17.1" r="2.6" fill="#2DD4C4" fill-opacity="0.55"/>
<circle cx="73.4" cy="248.0" r="2.6" fill="#2DD4C4" fill-opacity="0.55"/>
<circle cx="444.2" cy="211.7" r="2.6" fill="#2DD4C4" fill-opacity="0.55"/>
<circle cx="746.4" cy="135.8" r="2.6" fill="#2DD4C4" fill-opacity="0.55"/>
<circle cx="1579.7" cy="77.4" r="2.6" fill="#2DD4C4" fill-opacity="0.55"/>
<circle cx="653.9" cy="80.3" r="2.6" fill="#2DD4C4" fill-opacity="0.55"/>
<circle cx="1002.1" cy="109.4" r="2.6" fill="#2DD4C4" fill-opacity="0.55"/>
<circle cx="563.6" cy="295.8" r="2.6" fill="#2DD4C4" fill-opacity="0.55"/>
<circle cx="507.9" cy="221.2" r="2.6" fill="#2DD4C4" fill-opacity="0.55"/>
<circle cx="1432.4" cy="40.0" r="2.6" fill="#2DD4C4" fill-opacity="0.55"/>
<circle cx="97.6" cy="90.6" r="2.6" fill="#2DD4C4" fill-opacity="0.55"/>
<text x="90" y="180" font-family="Space Grotesk, sans-serif" font-size="46" font-weight="700" fill="#F3F5F7">ZENZA TECHNOLOGY</text>
<text x="90" y="220" font-family="IBM Plex Sans, sans-serif" font-size="20" fill="#8B96A8">Fraud intelligence for African financial institutions</text>
<circle cx="180" cy="376" r="90" fill="none" stroke="#FF3399" stroke-width="2" stroke-dasharray="8,8"/>
<text x="180" y="376" font-family="monospace" font-size="12" fill="#FF3399" text-anchor="middle">profile photo overlap zone — avoid key content here</text>
<text x="1568" y="380" font-family="monospace" font-size="12" fill="#8B96A8" text-anchor="end">LINKEDIN COMPANY BANNER · 1584×396</text>
</svg>